<?xml version="1.0" standalone="no"?><!DOCTYPE svg PUBLIC "-//W3C//DTD SVG 1.1//EN" "http://www.w3.org/Graphics/SVG/1.1/DTD/svg11.dtd"><svg t="1483083728572" class="icon" style="" viewBox="0 0 1024 1024" version="1.1" xmlns="http://www.w3.org/2000/svg" p-id="2017" xmlns:xlink="http://www.w3.org/1999/xlink" width="32" height="32"><defs><style type="text/css"></style></defs><path d="M342.473156 334.895128 342.460687 671.977301C342.460687 712.537963 388.103949 738.400533 423.235612 717.425937L717.607115 549.299047C752.799899 528.290828 752.799899 479.152582 717.827496 458.273069L424.358516 289.901502C389.041889 270.570508 344.215877 295.011053 342.473156 334.895128ZM691.687783 482.64049C707.964298 492.442265 707.964298 515.17487 691.505283 525.084367L420.364581 681.251254C404.051587 691.070171 382.61755 678.822549 382.61755 660.095004L382.61755 347.52213C383.421087 329.242319 405.145658 317.297357 421.774772 326.474937L691.687783 482.64049ZM504.164083 43.294665C249.528362 43.294665 42.364295 250.457379 42.364295 505.096519 42.364295 759.735659 249.528362 966.902509 504.164083 966.902509 758.808072 966.902509 965.972139 759.735659 965.972139 505.096519 965.972139 250.457379 758.808072 43.294665 504.164083 43.294665L504.164083 43.294665ZM503.084016 1005.978785C226.305793 1005.978785 1.127355 780.801695 1.127355 504.015938 1.127355 227.234306 226.305793 2.057216 503.084016 2.057216 779.870485 2.057216 1005.048922 227.234306 1005.048922 504.015938 1005.048922 780.801695 779.870485 1005.978785 503.084016 1005.978785L503.084016 1005.978785Z" p-id="2018" fill="#cdcdcd"></path></svg>